<mxfile host="app.diagrams.net" modified="2021-01-26T16:18:22.381Z" agent="5.0 (Windows NT 10.0; Win64; x64) AppleWebKit/537.36 (KHTML, like Gecko) Chrome/87.0.4280.88 Safari/537.36" etag="yZvcqVEqJZCN1MHmTwy1" version="14.2.7" type="github">
  <diagram id="kpHh2OIZ8mG39EKhnk14" name="Page-1">
    <mxGraphModel dx="1580" dy="1982" grid="1" gridSize="10" guides="1" tooltips="1" connect="1" arrows="1" fold="1" page="1" pageScale="1" pageWidth="850" pageHeight="1100" math="0" shadow="0">
      <root>
        <mxCell id="0" />
        <mxCell id="1" parent="0" />
        <mxCell id="j9jqRA6r4eVJQh8rrNAO-1" style="edgeStyle=orthogonalEdgeStyle;rounded=0;orthogonalLoop=1;jettySize=auto;html=1;entryX=0.5;entryY=0;entryDx=0;entryDy=0;" edge="1" parent="1" source="j9jqRA6r4eVJQh8rrNAO-8" target="j9jqRA6r4eVJQh8rrNAO-6">
          <mxGeometry relative="1" as="geometry">
            <mxPoint x="170" y="410" as="targetPoint" />
          </mxGeometry>
        </mxCell>
        <mxCell id="j9jqRA6r4eVJQh8rrNAO-2" style="edgeStyle=orthogonalEdgeStyle;rounded=0;orthogonalLoop=1;jettySize=auto;html=1;entryX=1;entryY=0.5;entryDx=0;entryDy=0;exitX=1;exitY=0.5;exitDx=0;exitDy=0;" edge="1" parent="1" source="j9jqRA6r4eVJQh8rrNAO-6" target="j9jqRA6r4eVJQh8rrNAO-8">
          <mxGeometry relative="1" as="geometry">
            <Array as="points">
              <mxPoint x="480" y="360" />
              <mxPoint x="480" y="130" />
              <mxPoint x="363" y="130" />
            </Array>
          </mxGeometry>
        </mxCell>
        <mxCell id="j9jqRA6r4eVJQh8rrNAO-3" value="No" style="edgeLabel;html=1;align=center;verticalAlign=middle;resizable=0;points=[];" vertex="1" connectable="0" parent="j9jqRA6r4eVJQh8rrNAO-2">
          <mxGeometry x="0.2368" y="2" relative="1" as="geometry">
            <mxPoint as="offset" />
          </mxGeometry>
        </mxCell>
        <mxCell id="j9jqRA6r4eVJQh8rrNAO-4" style="edgeStyle=orthogonalEdgeStyle;rounded=0;orthogonalLoop=1;jettySize=auto;html=1;" edge="1" parent="1" source="j9jqRA6r4eVJQh8rrNAO-6" target="j9jqRA6r4eVJQh8rrNAO-16">
          <mxGeometry relative="1" as="geometry">
            <Array as="points">
              <mxPoint x="110" y="360" />
            </Array>
          </mxGeometry>
        </mxCell>
        <mxCell id="j9jqRA6r4eVJQh8rrNAO-5" value="Yes" style="edgeLabel;html=1;align=center;verticalAlign=middle;resizable=0;points=[];" vertex="1" connectable="0" parent="j9jqRA6r4eVJQh8rrNAO-4">
          <mxGeometry x="0.1167" y="3" relative="1" as="geometry">
            <mxPoint as="offset" />
          </mxGeometry>
        </mxCell>
        <mxCell id="j9jqRA6r4eVJQh8rrNAO-6" value="Session Calibration Successful?" style="rhombus;whiteSpace=wrap;html=1;" vertex="1" parent="1">
          <mxGeometry x="156.25" y="210" width="120" height="100" as="geometry" />
        </mxCell>
        <mxCell id="j9jqRA6r4eVJQh8rrNAO-7" value="" style="group" vertex="1" connectable="0" parent="1">
          <mxGeometry x="80" y="10" width="272.5" height="170" as="geometry" />
        </mxCell>
        <mxCell id="j9jqRA6r4eVJQh8rrNAO-8" value="&lt;div style=&quot;text-align: center&quot;&gt;&lt;br&gt;&lt;/div&gt;&lt;ul&gt;&lt;li&gt;&lt;span style=&quot;text-align: center&quot;&gt;Application State Update[7]&lt;/span&gt;&lt;/li&gt;&lt;li&gt;Image Calibration[8]&lt;/li&gt;&lt;li&gt;Video Capture&lt;/li&gt;&lt;li&gt;Geometric Calibration[&lt;/li&gt;&lt;li&gt;&lt;span style=&quot;color: rgba(0 , 0 , 0 , 0) ; font-family: monospace ; font-size: 0px&quot;&gt;%3CmxGraphModel%3E%3Croot%3E%3CmxCell%20id%3D%220%22%2F%3E%3CmxCell%20id%3D%221%22%20parent%3D%220%22%2F%3E%3CmxCell%20id%3D%222%22%20style%3D%22edgeStyle%3DorthogonalEdgeStyle%3Brounded%3D0%3BorthogonalLoop%3D1%3BjettySize%3Dauto%3Bhtml%3D1%3BentryX%3D0.5%3BentryY%3D0%3BentryDx%3D0%3BentryDy%3D0%3B%22%20edge%3D%221%22%20source%3D%229%22%20target%3D%227%22%20parent%3D%221%22%3E%3CmxGeometry%20relative%3D%221%22%20as%3D%22geometry%22%3E%3CmxPoint%20x%3D%22100%22%20y%3D%22900%22%20as%3D%22targetPoint%22%2F%3E%3C%2FmxGeometry%3E%3C%2FmxCell%3E%3CmxCell%20id%3D%223%22%20style%3D%22edgeStyle%3DorthogonalEdgeStyle%3Brounded%3D0%3BorthogonalLoop%3D1%3BjettySize%3Dauto%3Bhtml%3D1%3BentryX%3D1%3BentryY%3D0.5%3BentryDx%3D0%3BentryDy%3D0%3BexitX%3D1%3BexitY%3D0.5%3BexitDx%3D0%3BexitDy%3D0%3B%22%20edge%3D%221%22%20source%3D%227%22%20target%3D%229%22%20parent%3D%221%22%3E%3CmxGeometry%20relative%3D%221%22%20as%3D%22geometry%22%3E%3CArray%20as%3D%22points%22%3E%3CmxPoint%20x%3D%22410%22%20y%3D%22850%22%2F%3E%3CmxPoint%20x%3D%22410%22%20y%3D%22620%22%2F%3E%3C%2FArray%3E%3C%2FmxGeometry%3E%3C%2FmxCell%3E%3CmxCell%20id%3D%224%22%20value%3D%22No%22%20style%3D%22edgeLabel%3Bhtml%3D1%3Balign%3Dcenter%3BverticalAlign%3Dmiddle%3Bresizable%3D0%3Bpoints%3D%5B%5D%3B%22%20vertex%3D%221%22%20connectable%3D%220%22%20parent%3D%223%22%3E%3CmxGeometry%20x%3D%220.2368%22%20y%3D%222%22%20relative%3D%221%22%20as%3D%22geometry%22%3E%3CmxPoint%20as%3D%22offset%22%2F%3E%3C%2FmxGeometry%3E%3C%2FmxCell%3E%3CmxCell%20id%3D%225%22%20style%3D%22edgeStyle%3DorthogonalEdgeStyle%3Brounded%3D0%3BorthogonalLoop%3D1%3BjettySize%3Dauto%3Bhtml%3D1%3B%22%20edge%3D%221%22%20source%3D%227%22%20target%3D%2217%22%20parent%3D%221%22%3E%3CmxGeometry%20relative%3D%221%22%20as%3D%22geometry%22%3E%3CArray%20as%3D%22points%22%3E%3CmxPoint%20x%3D%2240%22%20y%3D%22850%22%2F%3E%3C%2FArray%3E%3C%2FmxGeometry%3E%3C%2FmxCell%3E%3CmxCell%20id%3D%226%22%20value%3D%22Yes%22%20style%3D%22edgeLabel%3Bhtml%3D1%3Balign%3Dcenter%3BverticalAlign%3Dmiddle%3Bresizable%3D0%3Bpoints%3D%5B%5D%3B%22%20vertex%3D%221%22%20connectable%3D%220%22%20parent%3D%225%22%3E%3CmxGeometry%20x%3D%220.1167%22%20y%3D%223%22%20relative%3D%221%22%20as%3D%22geometry%22%3E%3CmxPoint%20as%3D%22offset%22%2F%3E%3C%2FmxGeometry%3E%3C%2FmxCell%3E%3CmxCell%20id%3D%227%22%20value%3D%22Calibration%20Successful%3F%22%20style%3D%22rhombus%3BwhiteSpace%3Dwrap%3Bhtml%3D1%3B%22%20vertex%3D%221%22%20parent%3D%221%22%3E%3CmxGeometry%20x%3D%22120%22%20y%3D%22800%22%20width%3D%22120%22%20height%3D%22100%22%20as%3D%22geometry%22%2F%3E%3C%2FmxCell%3E%3CmxCell%20id%3D%228%22%20value%3D%22%22%20style%3D%22group%22%20vertex%3D%221%22%20connectable%3D%220%22%20parent%3D%221%22%3E%3CmxGeometry%20x%3D%2267.5%22%20y%3D%22570%22%20width%3D%22225%22%20height%3D%22140%22%20as%3D%22geometry%22%2F%3E%3C%2FmxCell%3E%3CmxCell%20id%3D%229%22%20value%3D%22%26lt%3Bul%26gt%3B%26lt%3Bli%26gt%3B%26lt%3Bspan%20style%3D%26quot%3Btext-align%3A%20center%26quot%3B%26gt%3BMPPS%20State%20Update%5B6%5D%26lt%3B%2Fspan%26gt%3B%26lt%3B%2Fli%26gt%3B%26lt%3Bli%26gt%3B%26lt%3Bspan%20style%3D%26quot%3Btext-align%3A%20center%26quot%3B%26gt%3BApplication%20State%20Update%5B7%5D%26lt%3B%2Fspan%26gt%3B%26lt%3B%2Fli%26gt%3B%26lt%3Bli%26gt%3BImage%20Calibration%5B8%5D%26lt%3B%2Fli%26gt%3B%26lt%3Bli%26gt%3BVideo%20Capture%5B9%5D%26lt%3B%2Fli%26gt%3B%26lt%3B%2Ful%26gt%3B%22%20style%3D%22rounded%3D0%3BwhiteSpace%3Dwrap%3Bhtml%3D1%3Balign%3Dleft%3B%22%20vertex%3D%221%22%20parent%3D%228%22%3E%3CmxGeometry%20width%3D%22225%22%20height%3D%22100%22%20as%3D%22geometry%22%2F%3E%3C%2FmxCell%3E%3CmxCell%20id%3D%2210%22%20value%3D%22Calibration%22%20style%3D%22text%3Bhtml%3D1%3BstrokeColor%3Dnone%3BfillColor%3Dnone%3Balign%3Dcenter%3BverticalAlign%3Dmiddle%3BwhiteSpace%3Dwrap%3Brounded%3D0%3B%22%20vertex%3D%221%22%20parent%3D%228%22%3E%3CmxGeometry%20x%3D%2212.5%22%20width%3D%2233.333333333333336%22%20height%3D%2215.555555555555555%22%20as%3D%22geometry%22%2F%3E%3C%2FmxCell%3E%3CmxCell%20id%3D%2211%22%20style%3D%22edgeStyle%3DorthogonalEdgeStyle%3Brounded%3D0%3BorthogonalLoop%3D1%3BjettySize%3Dauto%3Bhtml%3D1%3BentryX%3D0.5%3BentryY%3D1%3BentryDx%3D0%3BentryDy%3D0%3BexitX%3D0.5%3BexitY%3D0%3BexitDx%3D0%3BexitDy%3D0%3B%22%20edge%3D%221%22%20source%3D%2214%22%20target%3D%2219%22%20parent%3D%221%22%3E%3CmxGeometry%20relative%3D%221%22%20as%3D%22geometry%22%3E%3CArray%20as%3D%22points%22%3E%3CmxPoint%20x%3D%22280%22%20y%3D%22910%22%2F%3E%3CmxPoint%20x%3D%22520%22%20y%3D%22910%22%2F%3E%3C%2FArray%3E%3C%2FmxGeometry%3E%3C%2FmxCell%3E%3CmxCell%20id%3D%2212%22%20value%3D%22No%22%20style%3D%22edgeLabel%3Bhtml%3D1%3Balign%3Dcenter%3BverticalAlign%3Dmiddle%3Bresizable%3D0%3Bpoints%3D%5B%5D%3B%22%20vertex%3D%221%22%20connectable%3D%220%22%20parent%3D%2211%22%3E%3CmxGeometry%20x%3D%22-0.7518%22%20y%3D%224%22%20relative%3D%221%22%20as%3D%22geometry%22%3E%3CmxPoint%20as%3D%22offset%22%2F%3E%3C%2FmxGeometry%3E%3C%2FmxCell%3E%3CmxCell%20id%3D%2213%22%20value%3D%22Yes%22%20style%3D%22edgeStyle%3DorthogonalEdgeStyle%3Brounded%3D0%3BorthogonalLoop%3D1%3BjettySize%3Dauto%3Bhtml%3D1%3BentryX%3D0.011%3BentryY%3D0.4%3BentryDx%3D0%3BentryDy%3D0%3BentryPerimeter%3D0%3B%22%20edge%3D%221%22%20source%3D%2214%22%20target%3D%2215%22%20parent%3D%221%22%3E%3CmxGeometry%20relative%3D%221%22%20as%3D%22geometry%22%2F%3E%3C%2FmxCell%3E%3CmxCell%20id%3D%2214%22%20value%3D%22Image%20Successful%3F%22%20style%3D%22rhombus%3BwhiteSpace%3Dwrap%3Bhtml%3D1%3B%22%20vertex%3D%221%22%20parent%3D%221%22%3E%3CmxGeometry%20x%3D%22220%22%20y%3D%22975%22%20width%3D%22120%22%20height%3D%22100%22%20as%3D%22geometry%22%2F%3E%3C%2FmxCell%3E%3CmxCell%20id%3D%2215%22%20value%3D%22%26lt%3Bul%26gt%3B%26lt%3Bli%26gt%3BGeometric%20correction%5B21%5D)%26lt%3B%2Fli%26gt%3B%26lt%3Bli%26gt%3B2.5%20Data%20Available%5B11%5D%26lt%3B%2Fli%26gt%3B%26lt%3Bli%26gt%3B3D%20Data%20Available%5B12%5D%26lt%3B%2Fli%26gt%3B%26lt%3Bli%26gt%3BImage%20Parameters%5B18%5D%26lt%3B%2Fli%26gt%3B%26lt%3Bli%26gt%3BImage%20Rendered%5B14%5D%26lt%3B%2Fli%26gt%3B%26lt%3B%2Ful%26gt%3B%22%20style%3D%22rounded%3D0%3BwhiteSpace%3Dwrap%3Bhtml%3D1%3Balign%3Dleft%3B%22%20vertex%3D%221%22%20parent%3D%221%22%3E%3CmxGeometry%20x%3D%22410%22%20y%3D%22980%22%20width%3D%22180%22%20height%3D%22120%22%20as%3D%22geometry%22%2F%3E%3C%2FmxCell%3E%3CmxCell%20id%3D%2216%22%20style%3D%22edgeStyle%3DorthogonalEdgeStyle%3Brounded%3D0%3BorthogonalLoop%3D1%3BjettySize%3Dauto%3Bhtml%3D1%3BentryX%3D0%3BentryY%3D0.5%3BentryDx%3D0%3BentryDy%3D0%3B%22%20edge%3D%221%22%20source%3D%2217%22%20target%3D%2214%22%20parent%3D%221%22%3E%3CmxGeometry%20relative%3D%221%22%20as%3D%22geometry%22%2F%3E%3C%2FmxCell%3E%3CmxCell%20id%3D%2217%22%20value%3D%22%26lt%3Bul%26gt%3B%26lt%3Bli%26gt%3BImage%20Capture%20%5B10%5D%26lt%3B%2Fli%26gt%3B%26lt%3Bli%26gt%3BGeometric%20calibration%5B5%5D%26lt%3B%2Fli%26gt%3B%26lt%3B%2Ful%26gt%3B%22%20style%3D%22rounded%3D0%3BwhiteSpace%3Dwrap%3Bhtml%3D1%3Balign%3Dleft%3B%22%20vertex%3D%221%22%20parent%3D%221%22%3E%3CmxGeometry%20x%3D%2220%22%20y%3D%22980%22%20width%3D%22130%22%20height%3D%2290%22%20as%3D%22geometry%22%2F%3E%3C%2FmxCell%3E%3CmxCell%20id%3D%2218%22%20style%3D%22edgeStyle%3DorthogonalEdgeStyle%3Brounded%3D0%3BorthogonalLoop%3D1%3BjettySize%3Dauto%3Bhtml%3D1%3BentryX%3D0.996%3BentryY%3D0.289%3BentryDx%3D0%3BentryDy%3D0%3BentryPerimeter%3D0%3B%22%20edge%3D%221%22%20source%3D%2219%22%20target%3D%229%22%20parent%3D%221%22%3E%3CmxGeometry%20relative%3D%221%22%20as%3D%22geometry%22%3E%3CArray%20as%3D%22points%22%3E%3CmxPoint%20x%3D%22420%22%20y%3D%22599%22%2F%3E%3CmxPoint%20x%3D%22420%22%20y%3D%22599%22%2F%3E%3C%2FArray%3E%3C%2FmxGeometry%3E%3C%2FmxCell%3E%3CmxCell%20id%3D%2219%22%20value%3D%22PS%20Sequence%5B19%5D%26lt%3Bbr%26gt%3BCapacitor%20Charged%22%20style%3D%22rounded%3D0%3BwhiteSpace%3Dwrap%3Bhtml%3D1%3B%22%20vertex%3D%221%22%20parent%3D%221%22%3E%3CmxGeometry%20x%3D%22460%22%20y%3D%22580%22%20width%3D%22120%22%20height%3D%2260%22%20as%3D%22geometry%22%2F%3E%3C%2FmxCell%3E%3C%2Froot%3E%3C%2FmxGraphModel%3E&lt;/span&gt;&lt;br&gt;&lt;/li&gt;&lt;/ul&gt;" style="rounded=0;whiteSpace=wrap;html=1;align=left;" vertex="1" parent="j9jqRA6r4eVJQh8rrNAO-7">
          <mxGeometry width="272.5" height="121.42857142857142" as="geometry" />
        </mxCell>
        <mxCell id="j9jqRA6r4eVJQh8rrNAO-9" value="Capture Session Calibration" style="text;html=1;strokeColor=none;fillColor=none;align=center;verticalAlign=middle;whiteSpace=wrap;rounded=0;" vertex="1" parent="j9jqRA6r4eVJQh8rrNAO-7">
          <mxGeometry x="15.138888888888888" width="40.36633333333333" height="24.285714285714285" as="geometry" />
        </mxCell>
        <mxCell id="j9jqRA6r4eVJQh8rrNAO-10" style="edgeStyle=orthogonalEdgeStyle;rounded=0;orthogonalLoop=1;jettySize=auto;html=1;entryX=0.5;entryY=1;entryDx=0;entryDy=0;exitX=0.5;exitY=0;exitDx=0;exitDy=0;" edge="1" parent="1" source="j9jqRA6r4eVJQh8rrNAO-13" target="j9jqRA6r4eVJQh8rrNAO-18">
          <mxGeometry relative="1" as="geometry">
            <Array as="points">
              <mxPoint x="350" y="420" />
              <mxPoint x="590" y="420" />
            </Array>
          </mxGeometry>
        </mxCell>
        <mxCell id="j9jqRA6r4eVJQh8rrNAO-11" value="No" style="edgeLabel;html=1;align=center;verticalAlign=middle;resizable=0;points=[];" vertex="1" connectable="0" parent="j9jqRA6r4eVJQh8rrNAO-10">
          <mxGeometry x="-0.7518" y="4" relative="1" as="geometry">
            <mxPoint as="offset" />
          </mxGeometry>
        </mxCell>
        <mxCell id="j9jqRA6r4eVJQh8rrNAO-12" value="Yes" style="edgeStyle=orthogonalEdgeStyle;rounded=0;orthogonalLoop=1;jettySize=auto;html=1;entryX=0.011;entryY=0.4;entryDx=0;entryDy=0;entryPerimeter=0;" edge="1" parent="1" source="j9jqRA6r4eVJQh8rrNAO-13" target="j9jqRA6r4eVJQh8rrNAO-14">
          <mxGeometry relative="1" as="geometry" />
        </mxCell>
        <mxCell id="j9jqRA6r4eVJQh8rrNAO-13" value="Image Successful?" style="rhombus;whiteSpace=wrap;html=1;" vertex="1" parent="1">
          <mxGeometry x="240" y="485" width="120" height="100" as="geometry" />
        </mxCell>
        <mxCell id="j9jqRA6r4eVJQh8rrNAO-14" value="&lt;ul&gt;&lt;li&gt;Geometric correction[21])&lt;/li&gt;&lt;li&gt;2.5 Data Available[11]&lt;/li&gt;&lt;li&gt;3D Data Available[12]&lt;/li&gt;&lt;li&gt;Image Parameters[18]&lt;/li&gt;&lt;li&gt;Image Rendered[14]&lt;/li&gt;&lt;/ul&gt;" style="rounded=0;whiteSpace=wrap;html=1;align=left;" vertex="1" parent="1">
          <mxGeometry x="480" y="490" width="180" height="120" as="geometry" />
        </mxCell>
        <mxCell id="j9jqRA6r4eVJQh8rrNAO-15" style="edgeStyle=orthogonalEdgeStyle;rounded=0;orthogonalLoop=1;jettySize=auto;html=1;entryX=0;entryY=0.5;entryDx=0;entryDy=0;" edge="1" parent="1" source="j9jqRA6r4eVJQh8rrNAO-16" target="j9jqRA6r4eVJQh8rrNAO-13">
          <mxGeometry relative="1" as="geometry" />
        </mxCell>
        <mxCell id="j9jqRA6r4eVJQh8rrNAO-16" value="&lt;ul&gt;&lt;li&gt;Image Capture [10]&lt;/li&gt;&lt;li&gt;Image Calibration[8]&lt;/li&gt;&lt;/ul&gt;" style="rounded=0;whiteSpace=wrap;html=1;align=left;" vertex="1" parent="1">
          <mxGeometry x="30" y="490" width="130" height="90" as="geometry" />
        </mxCell>
        <mxCell id="j9jqRA6r4eVJQh8rrNAO-17" style="edgeStyle=orthogonalEdgeStyle;rounded=0;orthogonalLoop=1;jettySize=auto;html=1;entryX=0.996;entryY=0.289;entryDx=0;entryDy=0;entryPerimeter=0;" edge="1" parent="1" source="j9jqRA6r4eVJQh8rrNAO-18" target="j9jqRA6r4eVJQh8rrNAO-8">
          <mxGeometry relative="1" as="geometry">
            <Array as="points">
              <mxPoint x="590" y="45" />
            </Array>
          </mxGeometry>
        </mxCell>
        <mxCell id="j9jqRA6r4eVJQh8rrNAO-18" value="PS Sequence[19]&lt;br&gt;Capacitor Charged" style="rounded=0;whiteSpace=wrap;html=1;" vertex="1" parent="1">
          <mxGeometry x="530" y="90" width="120" height="60" as="geometry" />
        </mxCell>
        <mxCell id="j9jqRA6r4eVJQh8rrNAO-20" style="edgeStyle=orthogonalEdgeStyle;rounded=0;orthogonalLoop=1;jettySize=auto;html=1;" edge="1" parent="1" source="j9jqRA6r4eVJQh8rrNAO-19" target="j9jqRA6r4eVJQh8rrNAO-8">
          <mxGeometry relative="1" as="geometry" />
        </mxCell>
        <mxCell id="j9jqRA6r4eVJQh8rrNAO-19" value="Start of calibration" style="ellipse;whiteSpace=wrap;html=1;" vertex="1" parent="1">
          <mxGeometry x="150" y="-100" width="120" height="80" as="geometry" />
        </mxCell>
        <mxCell id="j9jqRA6r4eVJQh8rrNAO-21" value="Query MPPS device[6]" style="rounded=0;whiteSpace=wrap;html=1;" vertex="1" parent="1">
          <mxGeometry x="440" y="-230" width="120" height="60" as="geometry" />
        </mxCell>
        <mxCell id="j9jqRA6r4eVJQh8rrNAO-22" value="Global" style="rounded=0;whiteSpace=wrap;html=1;" vertex="1" parent="1">
          <mxGeometry x="570" y="-230" width="230" height="170" as="geometry" />
        </mxCell>
      </root>
    </mxGraphModel>
  </diagram>
</mxfile>
